<svg width="69" height="68" viewBox="0 0 69 68" fill="none" xmlns="http://www.w3.org/2000/svg">
<g clip-path="url(#clip0_13084_3080)">
<path d="M18.0173 23.0763L33.0311 16.1968V56.0377H18.0173V23.0763ZM0.357422 56.0377H15.3713V24.2919L0.357422 31.1714V56.031V56.0377ZM35.6837 56.0377H50.6975V8.09508L35.6837 14.9746V56.031V56.0377ZM68.3574 0L53.3436 6.87948V56.031H54.5653L57.7341 49.6191C58.1522 48.7775 58.9819 48.2566 59.9032 48.2566C60.8244 48.2566 61.6541 48.7775 62.0723 49.6191L65.241 56.031H68.3574V0Z" fill="url(#paint0_linear_13084_3080)"/>
<path d="M63.7774 57.2881L63.1078 56.1077H63.1816L62.3959 54.5531L60.1972 50.2055C60.1023 50.0158 59.9283 50 59.8597 50C59.7912 50 59.6172 50.0211 59.5222 50.2108L57.3235 54.5584L55.9578 57.2618C55.4411 58.1787 55.2565 59.1853 55.4094 60.2023C55.71 62.168 57.3657 63.7542 59.3482 63.9703C60.6506 64.1178 61.895 63.712 62.8599 62.8478C63.8091 61.9941 64.3574 60.7768 64.3574 59.4962C64.3574 58.7268 64.1571 57.9627 63.7774 57.2881Z" fill="#CBD8D0"/>
</g>
<defs>
<linearGradient id="paint0_linear_13084_3080" x1="0.357422" y1="28.0189" x2="68.3574" y2="28.0189" gradientUnits="userSpaceOnUse">
<stop stop-color="#7AF182" stop-opacity="0.1"/>
<stop offset="1" stop-color="#7AF182"/>
</linearGradient>
<clipPath id="clip0_13084_3080">
<rect width="68" height="68" fill="white" transform="translate(0.357422)"/>
</clipPath>
</defs>
</svg>
