<svg width="56" height="57" viewBox="0 0 56 57" fill="none" xmlns="http://www.w3.org/2000/svg">
<g clip-path="url(#clip0_580_594)">
<path d="M19.1542 29.6093L11.0799 43.6034L3.34851 57H18.8057L21.0971 53.0262L22.2085 51.0993L26.5342 43.6034L26.8828 43.003L26.1171 41.6765L21.8742 34.3235L20.7542 32.3852L19.1571 29.615V29.6121L19.1542 29.6093Z" fill="#F9B913"/>
<path d="M37.9657 17.2647L36.8457 15.3292L29.8829 3.26768L28.7714 1.34081L28 0L27.2286 1.34081L26.1171 3.26768L19.1571 15.3292L18.0371 17.2675V17.2618L0 48.5178H56L37.9657 17.2618V17.2647ZM28 3.87662L35.7257 17.2647L36.8429 19.203L43.8029 31.2674H28.3514L28 30.6556L22.9914 21.9761L21.8714 20.0378L20.2714 17.2647L28.0029 3.87662H28ZM3.34857 46.5909L11.08 33.1943L19.1543 19.2001H19.1571V19.2058L20.7571 21.9789L21.8743 23.9172L26.1171 31.2674L26.8829 32.5939L26.5371 33.1943L22.2114 40.6902L21.1 42.6171L18.8086 46.5909H3.34857ZM23.3343 42.6171L24.4457 40.6902L28 34.5322L28.7714 33.1943H44.92L52.6514 46.5909H21.0429L23.3343 42.6171Z" fill="#2B2B2B"/>
<path d="M36.8457 29.6093V29.6121L35.7257 27.6738L28 14.2858L20.2743 27.6738L21.8743 30.4469L22.9914 32.3852L28 41.0647L28.3543 41.6765H43.8057L36.8457 29.615L36.8486 29.6121L36.8457 29.6093Z" fill="#F9B913"/>
<path d="M28 44.9413L24.4457 51.0993L23.3343 53.0262L21.0428 57H52.6514L44.9228 43.6034H28.7714L28 44.9413Z" fill="#F9B913"/>
</g>
<defs>
<clipPath id="clip0_580_594">
<rect width="56" height="57" fill="white"/>
</clipPath>
</defs>
</svg>
