<svg width="51" height="58" viewBox="0 0 51 58" fill="none" xmlns="http://www.w3.org/2000/svg">
<g clip-path="url(#clip0_13084_3086)">
<path d="M44.218 43.4155C46.8769 42.4245 48.9424 41.2387 50.3574 39.9155V48.8747C50.3574 50.9483 47.8355 53.0793 43.4363 54.7234C38.6263 56.5221 32.2072 57.5131 25.3603 57.5131C18.5133 57.5131 12.0943 56.5221 7.28427 54.7234C2.8851 53.0793 0.363128 50.9483 0.363128 48.8747V39.9155C1.77817 41.233 3.84938 42.4245 6.50258 43.4155C11.5579 45.3059 18.2565 46.3427 25.3603 46.3427C32.464 46.3427 39.1626 45.3001 44.218 43.4155ZM25.3546 32.9325C18.2508 32.9325 11.5522 31.89 6.49687 30.0053C3.84367 29.0143 1.77246 27.8285 0.357422 26.5053V35.4645C0.357422 37.5382 2.87939 39.6691 7.27857 41.3132C12.0886 43.1119 18.5076 44.1029 25.3546 44.1029C32.2015 44.1029 38.6206 43.1119 43.4306 41.3132C47.8297 39.6691 50.3517 37.5382 50.3517 35.4645V26.5053C48.9367 27.8228 46.8655 29.0143 44.2123 30.0053C39.1569 31.8957 32.4583 32.9325 25.3546 32.9325ZM25.3546 19.5109C18.2508 19.5109 11.5522 18.4741 6.49687 16.5837C3.84367 15.5927 1.77246 14.4069 0.357422 13.0837V22.0486C0.357422 24.1223 2.87939 26.2532 7.27857 27.8916C12.0886 29.6903 18.5076 30.6813 25.3546 30.6813C32.2015 30.6813 38.6206 29.696 43.4306 27.8973C47.8297 26.2532 50.3517 24.1223 50.3517 22.0543V13.0894C48.9367 14.4069 46.8655 15.5984 44.2123 16.5894C39.1569 18.4798 32.4583 19.5166 25.3546 19.5166V19.5109ZM7.27857 14.4814C12.0886 16.2801 18.5076 17.2711 25.3546 17.2711C32.2015 17.2711 38.6206 16.2801 43.4306 14.4814C47.8297 12.8373 50.3517 10.7064 50.3517 8.63842C50.3517 6.57047 47.8297 4.43378 43.4306 2.79546C38.6263 0.991012 32.2015 0 25.3546 0C18.5076 0 12.0886 0.991012 7.27857 2.78973C2.87939 4.42805 0.357422 6.55901 0.357422 8.63269C0.357422 10.7064 2.87939 12.8373 7.27857 14.4814Z" fill="url(#paint0_linear_13084_3086)"/>
<path d="M31.7687 39.4346H20.1517C18.2517 39.4346 16.7168 40.9812 16.7168 42.8831V54.5461C16.7168 56.4536 18.2574 57.9946 20.1517 57.9946H31.7687C33.6688 57.9946 35.2036 56.4479 35.2036 54.5461V42.8831C35.2036 40.9755 33.663 39.4346 31.7687 39.4346ZM31.375 46.8758H29.6519V45.2775H23.4896L26.3197 48.1188C26.6563 48.4568 26.6563 49.0067 26.3197 49.3447L23.501 52.1745H29.6519V50.4388H31.375V53.0338C31.375 53.5092 30.987 53.8988 30.5134 53.8988H21.4184C20.9391 53.8988 20.5568 53.5092 20.5568 53.0338C20.5568 52.8046 20.6481 52.5812 20.8079 52.4208L24.4881 48.7318L20.7964 45.0255C20.4598 44.6875 20.4598 44.1376 20.7964 43.7996C20.9562 43.6392 21.1787 43.5476 21.407 43.5476H30.5191C30.9927 43.5476 31.3807 43.9371 31.3807 44.4125V46.8815L31.375 46.8758Z" fill="#CBD8D0"/>
</g>
<defs>
<linearGradient id="paint0_linear_13084_3086" x1="0.357422" y1="28.7565" x2="50.3574" y2="28.7565" gradientUnits="userSpaceOnUse">
<stop stop-color="#F1D97A"/>
<stop offset="1" stop-color="#A36C15"/>
</linearGradient>
<clipPath id="clip0_13084_3086">
<rect width="50" height="58" fill="white" transform="translate(0.357422)"/>
</clipPath>
</defs>
</svg>
