<svg width="75" height="66" viewBox="0 0 75 66" fill="none" xmlns="http://www.w3.org/2000/svg">
<path d="M58.5308 65.994C60.7754 65.994 62.5949 64.1802 62.5949 61.9428C62.5949 59.7054 60.7754 57.8916 58.5308 57.8916C56.2863 57.8916 54.4668 59.7054 54.4668 61.9428C54.4668 64.1802 56.2863 65.994 58.5308 65.994Z" fill="#CBD8D0"/>
<path d="M16.1832 58.9931C17.8162 58.9931 19.1422 60.315 19.1422 61.9428C19.1422 63.5706 17.8162 64.8924 16.1832 64.8924C14.5502 64.8924 13.2242 63.5706 13.2242 61.9428C13.2242 60.315 14.5502 58.9931 16.1832 58.9931ZM16.1832 57.8916C13.9363 57.8916 12.1191 59.7091 12.1191 61.9428C12.1191 64.1764 13.9424 65.994 16.1832 65.994C18.4239 65.994 20.2472 64.1764 20.2472 61.9428C20.2472 59.7091 18.4239 57.8916 16.1832 57.8916Z" fill="#CBD8D0"/>
<path d="M37.357 58.9931C38.99 58.9931 40.316 60.315 40.316 61.9428C40.316 63.5706 38.99 64.8924 37.357 64.8924C35.724 64.8924 34.398 63.5706 34.398 61.9428C34.398 60.315 35.724 58.9931 37.357 58.9931ZM37.357 57.8916C35.1101 57.8916 33.293 59.7091 33.293 61.9428C33.293 64.1764 35.1163 65.994 37.357 65.994C39.5978 65.994 41.4211 64.1764 41.4211 61.9428C41.4211 59.7091 39.5978 57.8916 37.357 57.8916Z" fill="#CBD8D0"/>
<path d="M33.2874 62.4992H31.3413V61.3916H33.2874V62.4992ZM28.5664 62.4992H25.7916V61.3916H28.5664V62.4992ZM23.0229 62.4992H20.248V61.3916H23.0229V62.4992Z" fill="#CBD8D0"/>
<path d="M54.4654 62.4992H52.5193V61.3916H54.4654V62.4992ZM49.7383 62.4992H46.9635V61.3916H49.7383V62.4992ZM44.1948 62.4992H41.4199V61.3916H44.1948V62.4992Z" fill="#CBD8D0"/>
<g clip-path="url(#clip0_15001_2458)">
<path d="M40.0057 48.9487C36.4167 50.8957 32.3181 52 27.962 52C13.8231 52 2.35742 40.3586 2.35742 26.0029C2.35742 11.6473 13.8231 0 27.9677 0C37.7676 0 46.2738 5.59115 50.5841 13.7977C40.9331 15.2681 33.5087 23.742 33.5087 33.9479C33.5087 39.8762 36.016 45.2232 40.0115 48.9487H40.0057ZM69.955 26.9212C67.2531 20.4408 60.9393 15.8958 53.5722 15.8958C52.9082 15.8958 52.2556 15.9365 51.6088 16.0063C49.1073 16.2852 46.7604 17.0931 44.6825 18.3136C44.2188 18.5868 43.7723 18.8774 43.3373 19.1854C42.9022 19.4935 42.4843 19.8247 42.0779 20.1735C38.2312 23.4863 35.7927 28.4265 35.7927 33.9421C35.7927 34.564 35.8213 35.1801 35.8843 35.7903C35.9473 36.3948 36.0331 36.9934 36.1533 37.5804C36.6857 40.2249 37.7905 42.6601 39.3246 44.7408C39.834 45.4383 40.395 46.095 41.0018 46.7053C41.3395 47.0482 41.7001 47.3795 42.0665 47.6933C42.3527 47.9374 42.6389 48.1757 42.9366 48.4024C43.3945 48.7511 43.8639 49.0766 44.3562 49.373C44.8427 49.6752 45.3465 49.9542 45.8674 50.2041C48.1971 51.3432 50.8131 51.9826 53.5779 51.9826C56.3427 51.9826 58.953 51.3432 61.2885 50.2041C61.8094 49.9484 62.3131 49.6694 62.7997 49.373C63.2862 49.0766 63.7613 48.7453 64.2193 48.4024C64.9062 47.8851 65.553 47.3155 66.1541 46.6995C66.7551 46.0892 67.3161 45.4324 67.8313 44.735C69.3654 42.6485 70.4702 40.2133 71.0025 37.5746C71.1227 36.9876 71.2086 36.389 71.2716 35.7845C71.3345 35.1801 71.3631 34.564 71.3631 33.9363C71.3631 31.4429 70.8651 29.0716 69.9664 26.9096L69.955 26.9212Z" fill="url(#paint0_linear_15001_2458)"/>
</g>
<defs>
<linearGradient id="paint0_linear_15001_2458" x1="2.35742" y1="26" x2="71.3631" y2="26" gradientUnits="userSpaceOnUse">
<stop stop-color="#F1D97A"/>
<stop offset="1" stop-color="#A36C15"/>
</linearGradient>
<clipPath id="clip0_15001_2458">
<rect width="69" height="52" fill="white" transform="translate(2.35742)"/>
</clipPath>
</defs>
</svg>
