<svg width="57" height="47" viewBox="0 0 57 47" fill="none" xmlns="http://www.w3.org/2000/svg">
<path fillRule="evenodd" clipRule="evenodd" d="M17.4185 20.9531V11.0788C24.7524 12.3164 32.2451 12.3164 39.579 11.0788V20.9531H17.4185ZM28.4988 35.001C24.785 34.9878 21.0772 35.2985 17.4185 35.9298V26.0547H39.579V35.9298C35.9204 35.2986 32.2127 34.9878 28.4988 35.001ZM47.0735 9.17898L47.2084 9.13048C50.0665 8.16451 52.8054 6.88293 55.3732 5.30974C55.8723 4.99745 56.2831 4.56479 56.5669 4.05239C56.8508 3.53999 56.9984 2.96464 56.9959 2.38031C56.9913 1.945 56.8671 1.51903 56.6366 1.14818C56.4062 0.777329 56.0782 0.47551 55.6878 0.2749C55.2973 0.0742908 54.8591 -0.0175024 54.42 0.00934736C53.9809 0.0361972 53.5574 0.180714 53.1949 0.427365C49.9447 2.53741 46.3633 4.09912 42.5964 5.04904C42.4543 5.08638 42.3186 5.1285 42.1757 5.16426C41.5261 5.32952 40.8492 5.48213 40.1531 5.62514C39.9427 5.66964 39.726 5.70933 39.5108 5.75065C38.9338 5.86347 38.341 5.96692 37.7324 6.0612C37.5469 6.0898 37.3662 6.12167 37.1775 6.14868C36.3859 6.2631 35.5717 6.36396 34.7255 6.44818C34.5793 6.46248 34.4283 6.4721 34.2798 6.4864C33.5491 6.55314 32.7976 6.60607 32.0252 6.64526C31.8068 6.65639 31.5893 6.66911 31.3676 6.67785C30.4379 6.71758 29.488 6.74535 28.4996 6.74535C27.5112 6.74535 26.567 6.71758 25.6404 6.67785C25.4091 6.66911 25.1827 6.65642 24.9563 6.64371C24.2144 6.60293 23.4918 6.55 22.7884 6.48485C22.6078 6.46895 22.4231 6.45693 22.2464 6.43945C21.429 6.36 20.6407 6.2599 19.8763 6.14946C19.6234 6.11291 19.3809 6.07005 19.132 6.03191C18.6181 5.94981 18.116 5.8621 17.6257 5.76888C17.3302 5.71326 17.0347 5.6576 16.7481 5.59721C16.2503 5.49233 15.7677 5.38033 15.2948 5.26512C14.8564 5.15866 14.4325 5.04667 14.0101 4.93226C10.3896 3.97918 6.94698 2.45805 3.81311 0.42659C3.45028 0.178526 3.02601 0.0326841 2.5859 0.00488592C2.14578 -0.0229123 1.70633 0.0682902 1.31458 0.268693C0.922817 0.469096 0.593562 0.771159 0.361993 1.14255C0.130423 1.51395 0.00530834 1.94065 3.25367e-05 2.37702C-0.00251562 2.96048 0.144647 3.53515 0.427759 4.04696C0.710871 4.55876 1.12066 4.99103 1.61871 5.30334C4.18219 6.87286 6.91593 8.15218 9.76835 9.1171C9.82294 9.13617 9.8759 9.1568 9.92889 9.17587C10.5897 9.40072 11.281 9.61211 11.9868 9.81948V20.949H9.58849C9.33617 20.9475 9.08594 20.9952 8.85222 21.0893C8.6185 21.1834 8.40585 21.3222 8.22632 21.4976C8.04678 21.6731 7.90386 21.8817 7.80584 22.1117C7.70782 22.3418 7.65658 22.5889 7.655 22.8386C7.65794 23.2634 7.74544 23.6834 7.91248 24.0748C8.07952 24.4661 8.32286 24.821 8.62856 25.1193C8.93426 25.4176 9.29635 25.6536 9.69415 25.8134C10.092 25.9732 10.5176 26.0538 10.9469 26.0508H11.9908V37.1796C11.285 37.387 10.5937 37.5999 9.93291 37.8232C9.8759 37.8423 9.82295 37.8629 9.77236 37.8835C6.91981 38.8481 4.18604 40.1275 1.62273 41.6973C1.12452 42.0094 0.714616 42.4418 0.431483 42.9537C0.148351 43.4655 0.00127701 44.0401 0.00405105 44.6236C0.00959885 45.0599 0.134873 45.4865 0.366501 45.8577C0.598129 46.2289 0.927326 46.5308 1.31899 46.7312C1.71065 46.9315 2.15 47.0228 2.59001 46.9952C3.03002 46.9675 3.45423 46.8218 3.81713 46.574C6.95076 44.542 10.3935 43.0206 14.0141 42.0676C14.4325 41.9524 14.8564 41.8412 15.2988 41.734C15.7717 41.6187 16.2543 41.5075 16.7521 41.4026C17.0388 41.3423 17.3342 41.2866 17.6296 41.231C18.1199 41.1372 18.6221 41.0498 19.136 40.9687C19.3849 40.929 19.6274 40.8893 19.8803 40.8504C20.6471 40.74 21.4331 40.6422 22.2504 40.5612C22.4271 40.5429 22.6118 40.5301 22.7924 40.5142C23.4958 40.4507 24.2184 40.3977 24.9603 40.3554C25.1867 40.3442 25.4132 40.3316 25.6444 40.3212C26.571 40.2815 27.5176 40.2545 28.5036 40.2545C29.4896 40.2545 30.4419 40.2815 31.3717 40.3212C31.5933 40.3308 31.8108 40.3435 32.0292 40.3546C32.8006 40.3964 33.5521 40.4494 34.2838 40.5135C34.4324 40.527 34.5833 40.5374 34.7295 40.5509C35.5741 40.6351 36.3899 40.7368 37.1815 40.8512C37.3702 40.879 37.5509 40.91 37.7364 40.9394C38.3445 41.0337 38.9373 41.1369 39.5148 41.2492C39.7292 41.2897 39.9459 41.3286 40.1571 41.3739C40.8532 41.5177 41.5301 41.6703 42.1797 41.8356C42.3226 41.8721 42.4583 41.9151 42.6005 41.9508C46.3673 42.9013 49.9486 44.4632 53.1989 46.5733C53.5615 46.8199 53.9849 46.9644 54.424 46.9913C54.8631 47.0181 55.3013 46.9263 55.6918 46.7257C56.0822 46.5251 56.4102 46.2233 56.6406 45.8525C56.8711 45.4816 56.9953 45.0556 57 44.6203C57.0026 44.0357 56.8551 43.4602 56.5713 42.9475C56.2874 42.4348 55.8765 42.0018 55.3773 41.6893C52.8093 40.1164 50.0705 38.8351 47.2124 37.8694C47.1675 37.8535 47.1224 37.836 47.0775 37.8217C46.4143 37.596 45.7198 37.3823 45.0084 37.1734V26.0444H47.4075C47.917 26.0474 48.4069 25.8499 48.7695 25.4956C49.132 25.1414 49.3376 24.6593 49.341 24.1551C49.3381 23.7302 49.2507 23.3101 49.0837 22.9187C48.9167 22.5273 48.6733 22.1722 48.3676 21.8739C48.0619 21.5756 47.6998 21.3398 47.3019 21.1801C46.9041 21.0203 46.4783 20.9397 46.0489 20.9428H45.0052V9.81308C45.7166 9.60571 46.4111 9.39201 47.0743 9.16637L47.0735 9.17898Z" fill="url(#paint0_linear_211_2403)"/>
<defs>
<linearGradient id="paint0_linear_211_2403" x1="-2447.58" y1="-1254.66" x2="-2447.58" y2="-1254.76" gradientUnits="userSpaceOnUse">
<stop stop-color="#006EF5"/>
<stop offset="1" stop-color="#0062DB"/>
</linearGradient>
</defs>
</svg>
