<svg width="57" height="58" viewBox="0 0 57 58" fill="none" xmlns="http://www.w3.org/2000/svg">
<path opacity="0.8" d="M34.3098 35.4542C28.681 38.6073 23.461 42.5427 18.8949 47.0971C17.1899 48.7904 15.5667 50.5888 14.0369 52.4456L13.6632 52.9127C11.8998 51.85 10.2766 50.5888 8.79348 49.1875L9.03872 48.9422C14.6208 43.4186 23.531 38.689 34.2981 35.4542H34.3098ZM0 30.6546C0.432084 36.4235 2.56915 41.7136 5.93239 46.0111L6.0842 45.8592C9.54087 42.4493 14.0369 39.3546 19.4554 36.657C24.2084 34.2864 29.662 32.2545 35.5476 30.6546H0ZM21.9195 6.94837C31.5538 16.5476 43.6871 22.9004 56.9883 25.3061C55.3884 11.0707 43.2784 0 28.5525 0C24.6638 0 20.9619 0.770744 17.5753 2.1721C18.9533 3.83036 20.413 5.44192 21.9312 6.94837H21.9195ZM9.0504 8.12784C14.6325 13.6632 23.5427 18.3811 34.3098 21.6159C28.681 18.4511 23.461 14.5157 18.8949 9.97296C17.2016 8.27966 15.5667 6.49293 14.0369 4.62446L13.6632 4.15734C11.8998 5.22004 10.2766 6.48125 8.80516 7.88261L9.0504 8.12784ZM21.9195 50.11C20.4014 51.6165 18.9299 53.228 17.5636 54.8863C20.9385 56.2876 24.6521 57.0584 28.5409 57.0584C43.2667 57.0584 55.3884 45.9877 56.9883 31.7406C43.6871 34.1463 31.5538 40.4991 21.9195 50.0983V50.11ZM19.4554 20.4014C14.0369 17.7037 9.54087 14.6091 6.0842 11.1991L5.93239 11.0473C2.56915 15.3448 0.432084 20.6349 0 26.4038H35.5476C29.662 24.8039 24.2084 22.772 19.4554 20.3897V20.4014Z" fill="url(#paint0_linear_211_2454)"/>
<defs>
<linearGradient id="paint0_linear_211_2454" x1="0" y1="28.5292" x2="57" y2="28.5292" gradientUnits="userSpaceOnUse">
<stop stop-color="#FFC764"/>
<stop offset="0.1" stop-color="#F9A448"/>
<stop offset="0.23" stop-color="#F4812D"/>
<stop offset="0.37" stop-color="#D75618"/>
<stop offset="0.48" stop-color="#945C48"/>
<stop offset="0.6" stop-color="#526178"/>
<stop offset="0.75" stop-color="#285180"/>
<stop offset="0.87" stop-color="#173B5A"/>
<stop offset="1" stop-color="#123043"/>
</linearGradient>
</defs>
</svg>
