<svg width="22" height="23" viewBox="0 0 22 23" fill="none" xmlns="http://www.w3.org/2000/svg">
<rect width="22" height="23" rx="3" fill="#121212"/>
<path d="M16.4939 13.2658C15.7992 12.3678 15.1085 11.4738 14.4217 10.5838C14.9382 9.92144 15.4568 9.25906 15.9753 8.59262C16.4523 7.98104 16.9332 7.36742 17.4142 6.74975L18 6L17.0639 6.01625C16.9352 6.01829 16.8323 6.02032 16.7492 6.02032C16.5038 6.02032 16.2603 6.02032 16.0149 6.02438C15.7715 6.02438 15.53 6.02845 15.2866 6.02845C14.865 6.02845 14.5226 6.02235 14.2079 6.01016C14.1763 6.01016 14.1466 6.01016 14.1169 6.01016C13.5608 6.01016 13.1511 6.22757 12.8285 6.69285C12.494 7.1744 12.1338 7.62953 11.7538 8.11107C11.5935 8.31426 11.4312 8.51947 11.2729 8.72469L11.0552 9.00508L11.2729 9.28547C11.7103 9.85032 12.1457 10.4131 12.5791 10.976L13.3747 12.0061C13.062 12.4043 12.7493 12.7985 12.4267 13.2069L12.205 13.4873L12.4247 13.7718C12.498 13.8673 12.5712 13.9607 12.6424 14.0522C12.8483 14.3163 13.0422 14.5662 13.2283 14.8202C13.4103 15.0681 13.6439 15.19 13.9408 15.19H13.9586C14.4336 15.1859 14.9105 15.1859 15.3875 15.1859H15.7457H16.104C16.3434 15.1859 16.5849 15.1859 16.8244 15.1859H16.8818H16.9689C17.0045 15.1859 17.0401 15.1859 17.0757 15.1859L17.9644 15.1697L17.4122 14.4545L16.4939 13.2679V13.2658ZM14.1169 6.45919C14.1407 6.45919 14.1664 6.45919 14.1921 6.45919C14.1189 6.45716 14.0555 6.46326 13.9902 6.46935C14.0318 6.46529 14.0714 6.45716 14.1169 6.45716V6.45919ZM13.9388 14.7389C13.9388 14.7389 13.9348 14.7389 13.9309 14.7389C13.9368 14.7389 13.9427 14.7389 13.9507 14.7389C13.9467 14.7389 13.9427 14.7389 13.9388 14.7389ZM16.9689 14.7348C16.959 14.7348 16.953 14.7348 16.9431 14.7348C16.9827 14.7348 17.0263 14.7348 17.0678 14.7348C17.0342 14.7348 17.0005 14.7348 16.9689 14.7348ZM7.91226 6.38605C7.7183 6.1341 7.4808 6.01625 7.1681 6.01625H7.16414C6.54664 6.02235 5.9331 6.02235 5.41259 6.02235H4.82676H4.23895C4.19937 6.02235 4.15978 6.02235 4.11426 6.02438C4.06874 6.02438 4.01531 6.02845 3.95197 6.02845H3.92624L3.00594 6.02032L3.58187 6.75991C4.27655 7.65188 4.96728 8.53776 5.65602 9.41957C6.32498 10.275 6.98997 11.1283 7.65299 11.9797C6.29727 13.7332 4.94947 15.4785 3.56802 17.2624L3 17.9939H4.57738H5.21467C5.77477 17.9939 6.43779 17.9939 7.09289 18H7.10674C7.49466 18 7.70445 17.7928 7.82913 17.6363L7.85882 17.5977C9.16902 15.9113 10.5228 14.17 11.8666 12.4633C12.0408 12.2418 12.1813 11.8923 11.8587 11.4839C10.4317 9.64917 9.14131 7.979 7.91424 6.38402L7.91226 6.38605ZM7.09685 17.551C7.09685 17.551 7.11268 17.5489 7.1206 17.5469C7.11466 17.5469 7.11268 17.551 7.10674 17.551C7.10278 17.551 7.09883 17.551 7.09685 17.551ZM11.5242 12.1808C11.5875 12.0996 11.6153 12.0345 11.6113 11.9695C11.6153 12.0325 11.5875 12.0996 11.5242 12.1808Z" fill="url(#paint0_linear_2163_2)"/>
<defs>
<linearGradient id="paint0_linear_2163_2" x1="3.00198" y1="12" x2="18" y2="12" gradientUnits="userSpaceOnUse">
<stop stop-color="#BCFF2F"/>
<stop offset="1" stop-color="#00FF87"/>
</linearGradient>
</defs>
</svg>
